<?xml version="1.0" encoding="UTF-8"?>
<svg width="30px" height="30px" viewBox="0 0 30 30" version="1.1" xmlns="http://www.w3.org/2000/svg" xmlns:xlink="http://www.w3.org/1999/xlink">
    <!-- Generator: Sketch 46.2 (44496) - http://www.bohemiancoding.com/sketch -->
    <defs></defs>
    <g id="Page-1" stroke="none" stroke-width="1" fill="none" fill-rule="evenodd">
        <g id="running" fill-rule="nonzero" fill="#FDBA12">
            <path d="M15.5,30 C6.89109895,30 0,23.452697 0,15.5 C0,6.71572875 6.71572875,0 15.5,0 C23.452697,0 30,6.89109895 30,15.5 C30,23.2842712 23.2842712,30 15.5,30 Z M15.5,27 C21.627417,27 27,21.627417 27,15.5 C27,8.51458869 21.7605333,3 15.5,3 C8.372583,3 3,8.372583 3,15.5 C3,21.7605333 8.51458869,27 15.5,27 Z" id="Oval-5"></path>
            <g id="Group" transform="translate(7.000000, 7.000000)">
                <path d="M3.74700682,7.89769089 C3.73226058,7.40378156 3.86058322,6.65195171 4.2505165,5.95031598 C4.43466933,5.61895619 4.66764558,5.32396362 4.9574893,5.0683508 C5.95529485,4.18838731 6.96146175,3.76775366 8.02949295,3.74975146 L7.97050705,0.250248542 C6.03576319,0.282859628 4.24192118,1.03278522 2.64248397,2.44332693 C2.04512071,2.97014085 1.56401167,3.57931709 1.19121716,4.25011377 C0.762360695,5.02178686 0.495965755,5.83536449 0.356339258,6.65342255 C0.26466278,7.19054611 0.238366759,7.65680308 0.249533114,8.02155631 C0.251391311,8.07319085 0.251391311,8.07319085 0.252993175,8.10230911 L3.74700682,7.89769089 Z" id="Path-2"></path>
                <path d="M11.4998845,15.6474424 C11.4851382,15.153533 11.6134609,14.4017032 12.0033942,13.7000674 C12.187547,13.3687077 12.4205232,13.0737151 12.710367,12.8181023 C13.7081725,11.9381388 14.7143394,11.5175051 15.7823706,11.4995029 L15.7233847,8 C13.7886409,8.03261109 11.9947988,8.78253668 10.3953616,10.1930784 C9.79799838,10.7198923 9.31688933,11.3290686 8.94409483,11.9998652 C8.51523836,12.7715383 8.24884342,13.585116 8.10921692,14.403174 C8.01754045,14.9402976 7.99124442,15.4065545 8.00241078,15.7713078 C8.00426898,15.8229423 8.00426898,15.8229423 8.00587084,15.8520606 L11.4998845,15.6474424 Z" id="Path-2" transform="translate(11.891185, 11.926030) rotate(-180.000000) translate(-11.891185, -11.926030) "></path>
            </g>
        </g>
    </g>
</svg>
