<?xml version="1.0" encoding="UTF-8"?>
<svg width="34px" height="34px" viewBox="0 0 34 34" version="1.1" xmlns="http://www.w3.org/2000/svg" xmlns:xlink="http://www.w3.org/1999/xlink">
    <!-- Generator: Sketch 46.2 (44496) - http://www.bohemiancoding.com/sketch -->
    <defs></defs>
    <g id="VD" stroke="none" stroke-width="1" fill="none" fill-rule="evenodd">
        <g id="Mijn-ruimte---Foto's-beheren" transform="translate(-132.000000, -290.000000)" fill-rule="nonzero" fill="#CDCCCC">
            <g id="empty" transform="translate(132.000000, 290.000000)">
                <g id="BuildState_8db19d0b-2b09-43df-b8af-2dc33cb0d812_circle-Clipped">
                    <path d="M17,33.5 C7.88730163,33.5 0.5,26.1126984 0.5,17 C0.5,9.73384705 5.23883087,3.38667948 12.0680116,1.25014814 C13.651434,0.754769322 15.3094536,0.5 17,0.5 C26.1126984,0.5 33.5,7.88730163 33.5,17 C33.5,26.1126984 26.1126984,33.5 17,33.5 Z M17,30.5 C24.4558441,30.5 30.5,24.4558441 30.5,17 C30.5,9.54415588 24.4558441,3.5 17,3.5 C15.6141202,3.5 14.2580776,3.70836788 12.963758,4.11329998 C7.37789804,5.86085438 3.5,11.0548926 3.5,17 C3.5,24.4558441 9.54415588,30.5 17,30.5 Z" id="BuildState_8db19d0b-2b09-43df-b8af-2dc33cb0d812_circle"></path>
                </g>
                <polygon id="Shape" points="12 18 22 18 22 16 12 16"></polygon>
            </g>
        </g>
    </g>
</svg>
